<svg xmlns="http://www.w3.org/2000/svg" width="246" height="289.8" viewBox="0 0 246 289.8"><path d="M64.2,187.3h40.9S110.6,225,86.8,225,63,205.3,64.2,187.3Z" fill="none" stroke="#000" stroke-linecap="round" stroke-linejoin="round" stroke-width="6"/><rect x="80.1" y="194" width="9.9" height="24.35" rx="3.6"/><path d="M135.1,187.3H176s5.5,37.7-18.2,37.7S134,205.3,135.1,187.3Z" fill="none" stroke="#000" stroke-linecap="round" stroke-linejoin="round" stroke-width="6"/><rect x="150.7" y="194" width="9.9" height="24.35" rx="3.6"/><path d="M121.9,140.7s-70.6-9.6-87.4,56c-21.3,83.1,48.3,87,57.9,87.8s130.7,18.4,115.9-75.7C196.4,132.4,121.9,140.7,121.9,140.7Z" fill="none" stroke="#000" stroke-miterlimit="10" stroke-width="7"/><path d="M97.5,247.7s8.6,27.2,23,0c0,0,16.8,27.7,21.9,0" fill="none" stroke="#000" stroke-linecap="round" stroke-linejoin="round" stroke-width="6"/><path d="M52.2,162.9c.2.3-22.2-40.3-19.4-82.5C35.4,40.8,53.1-64,82.2,68.3c.3,1.1,7.8,26.6,7.8,74.4" fill="none" stroke="#000" stroke-linecap="round" stroke-linejoin="round" stroke-width="7"/><path d="M189.4,162.9s22.1-43,19.5-82.5S188.5-64,159.5,68.3c-.4,1.1-8.4,28.9-8.4,70.8" fill="none" stroke="#000" stroke-linecap="round" stroke-linejoin="round" stroke-width="7"/><path d="M113.3,228.1a3.3,3.3,0,0,1-.5-4.7,5.7,5.7,0,0,1,3-1.9" fill="none" stroke="#000" stroke-linecap="round" stroke-linejoin="round" stroke-width="4"/><path d="M120.8,237.1l-5-15.6s11.1-1.7,11.1,4a3.3,3.3,0,0,1-.4,1.4,8.3,8.3,0,0,1-3,1.8c-4,1.3-9.1.8-10.2-.6" fill="none" stroke="#000" stroke-linecap="round" stroke-linejoin="round" stroke-width="4"/><path d="M61.6,151.2c.2.3-16.4-34-13.9-62.9,2.2-27.1,4.6-94.4,23.7-4.4.3.8,2.9,27.3,5.1,62.5" fill="none" stroke="#000" stroke-linecap="round" stroke-linejoin="round" stroke-width="7"/><path d="M179.2,153.1s16.2-37.4,14.3-65.9c-2.2-32.5-5.8-94-22.9-2.5a256.8,256.8,0,0,0-4.8,62.8" fill="none" stroke="#000" stroke-linecap="round" stroke-linejoin="round" stroke-width="7"/></svg>