<svg xmlns="http://www.w3.org/2000/svg" width="300" height="300" viewBox="0 0 300 300"><path d="M82.2,168c.2.3-22.2-40.3-19.4-82.5,2.6-39.6,20.3-144.4,49.4-12.2.3,1.2,7.8,26.7,7.8,74.4" fill="#ffdcdc" stroke="#d88787" stroke-linecap="round" stroke-linejoin="round" stroke-width="7"/><path d="M219.4,168s22.1-43,19.5-82.5S218.5-58.9,189.5,73.3c-.4,1.2-8.4,29-8.4,70.9" fill="#ffdcdc" stroke="#d88787" stroke-linecap="round" stroke-linejoin="round" stroke-width="7"/><path d="M91.6,156.3c.2.3-16.4-34-13.9-63,2.2-27,4.6-94.3,23.7-4.3.3.8,2.9,27.3,5.1,62.4" fill="#fff" stroke="#d88787" stroke-linecap="round" stroke-linejoin="round" stroke-width="7"/><path d="M209.2,158.2s16.2-37.4,14.3-65.9c-2.2-32.5-5.8-94-22.9-2.5a255.6,255.6,0,0,0-4.8,62.7" fill="#fff" stroke="#d88787" stroke-linecap="round" stroke-linejoin="round" stroke-width="7"/><path d="M151.9,145.7s-70.6-9.5-87.4,56.1c-21.3,83.1,48.3,87,57.9,87.8S253.1,308,238.3,213.8C226.4,137.5,151.9,145.7,151.9,145.7Z" fill="#ffdcdc" stroke="#d88787" stroke-miterlimit="10" stroke-width="7"/><path d="M94.2,192.4h40.9s5.5,37.7-18.3,37.7S93,210.4,94.2,192.4Z" fill="#fff" stroke="#d88787" stroke-linecap="round" stroke-linejoin="round" stroke-width="6"/><rect x="110.1" y="199.1" width="9.9" height="24.35" rx="3.6" fill="#d88787"/><path d="M165.1,192.4H206s5.5,37.7-18.2,37.7S164,210.4,165.1,192.4Z" fill="#fff" stroke="#d88787" stroke-linecap="round" stroke-linejoin="round" stroke-width="6"/><rect x="180.7" y="199.1" width="9.9" height="24.35" rx="3.6" fill="#d88787"/><path d="M127.5,252.8s8.6,27.2,23,0c0,0,16.8,27.7,21.9,0" fill="none" stroke="#ce7c7c" stroke-linecap="round" stroke-linejoin="round" stroke-width="6"/><path d="M143.3,233.2a3.4,3.4,0,0,1-.5-4.8,6.2,6.2,0,0,1,3-1.8" fill="none" stroke="#d88787" stroke-linecap="round" stroke-linejoin="round" stroke-width="4"/><path d="M150.8,242.2l-5-15.6s11.1-1.7,11.1,4a3.3,3.3,0,0,1-.4,1.4,8.3,8.3,0,0,1-3,1.8c-4,1.3-9.1.8-10.2-.6" fill="#fff" stroke="#d88787" stroke-linecap="round" stroke-linejoin="round" stroke-width="4"/></svg>