<?xml version="1.0" encoding="utf-8"?>
<!-- Generator: Adobe Illustrator 26.2.1, SVG Export Plug-In . SVG Version: 6.00 Build 0)  -->
<svg version="1.1" id="layer" xmlns="http://www.w3.org/2000/svg" xmlns:xlink="http://www.w3.org/1999/xlink" x="0px" y="0px"
	 viewBox="0 0 601 179" width='current' height='current' style="enable-background:new 0 0 601 179;" xml:space="preserve">
<style type="text/css">
	.st0{fill:#574A3B;}
</style>
<g>
	<path class="st0" d="M95,89l61.5,61.3c15.1-16,24.3-37.6,24.3-61.3c0-23.7-9.2-45.3-24.3-61.3L95,89z"/>
	<polygon class="st0" points="90.7,93.2 30,153.7 90.7,178.7 151.4,153.7 	"/>
	<polygon class="st0" points="88.5,86.8 151.4,24.2 93.5,0.3 35.6,139.6 	"/>
	<path class="st0" d="M0.5,89c0,23.6,9.2,45.1,24.1,61.1L85,4.8L0.5,89z"/>
	<path class="st0" d="M573.5,71.8c-16.1,0-22,11.9-22,11.9V73.2h-12v69.9h12V97.4c0-6.2,5.8-14.9,18.6-14.9
		c11.9,0,18.5,7.2,18.5,20.3v40.3h12v-42.4C600.5,83.2,589.9,71.8,573.5,71.8"/>
	<path class="st0" d="M508.5,50h-12v13.9c0,5.1-4.2,9.3-9.3,9.3h-13.5l-22.3,53.6l-22.3-53.6h-12.3l28.5,68.5l-7.3,17.7h-15.7v10.4
		h12.2c7,0,13.2-4.2,15.9-10.6l31.4-75.5h14.8v41.7c0,10.8,6.4,17.7,16.3,17.7h16.5v-10.4h-20.9v-49h20.9V73.2h-20.9V50z"/>
	<path class="st0" d="M409.2,97.2c0-15.6-11.2-25.4-29.1-25.4c-16.6,0-28.2,10.3-30.4,26.6h11.7c2.5-12.1,10.9-16.5,18.4-16.5
		c10.9,0,17.5,6.1,17.5,16.4v4.7h-16.5c-23.2,0-33.2,7.4-33.2,20.1c0,13,10.3,21,26.5,21c13,0,20.5-4.8,23.9-12.4
		c0.9,6.4,4.5,11.3,13.8,11.3h7.9v-10.5h-10.4L409.2,97.2L409.2,97.2z M397.2,122.5c0,7.1-8.8,12.7-21.1,12.7c-9.9,0-16-3.8-16-10.9
		v-2.8c0-6.7,6.4-10.4,20.6-10.4h16.5V122.5z"/>
	<path class="st0" d="M328.5,44.9h-12v80.4c0,10.8,6.4,17.7,16.3,17.7h6.1v-10.4h-10.5V44.9H328.5z"/>
	<rect x="234.3" y="44.9" class="st0" width="12" height="98.1"/>
	<path class="st0" d="M308.2,44.9h-14.9l-37,36.9c-3.5,3.5-3.8,9-0.7,12.9l38.7,48.3h15.1l-44.2-55.2L308.2,44.9z"/>
</g>
</svg>
