<?xml version="1.0" encoding="utf-8"?>
<!-- Generator: Adobe Illustrator 26.2.1, SVG Export Plug-In . SVG Version: 6.00 Build 0)  -->
<svg version="1.1" id="레이어_1" xmlns="http://www.w3.org/2000/svg" xmlns:xlink="http://www.w3.org/1999/xlink" x="0px"
	 y="0px" viewBox="0 0 35 32" width='current' height='current' style="enable-background:new 0 0 171 32;" xml:space="preserve">
<style type="text/css">
	.st0{fill:#161616;}
	.st1{fill:#E17726;stroke:#E17726;stroke-width:0.25;stroke-linecap:round;stroke-linejoin:round;}
	.st2{fill:#E27625;stroke:#E27625;stroke-width:0.25;stroke-linecap:round;stroke-linejoin:round;}
	.st3{fill:#D5BFB2;stroke:#D5BFB2;stroke-width:0.25;stroke-linecap:round;stroke-linejoin:round;}
	.st4{fill:#233447;stroke:#233447;stroke-width:0.25;stroke-linecap:round;stroke-linejoin:round;}
	.st5{fill:#CC6228;stroke:#CC6228;stroke-width:0.25;stroke-linecap:round;stroke-linejoin:round;}
	.st6{fill:#E27525;stroke:#E27525;stroke-width:0.25;stroke-linecap:round;stroke-linejoin:round;}
	.st7{fill:#F5841F;stroke:#F5841F;stroke-width:0.25;stroke-linecap:round;stroke-linejoin:round;}
	.st8{fill:#C0AC9D;stroke:#C0AC9D;stroke-width:0.25;stroke-linecap:round;stroke-linejoin:round;}
	.st9{fill:#161616;stroke:#161616;stroke-width:0.25;stroke-linecap:round;stroke-linejoin:round;}
	.st10{fill:#763E1A;stroke:#763E1A;stroke-width:0.25;stroke-linecap:round;stroke-linejoin:round;}
</style>
<path class="st1" d="M32.4,0.5l-13.1,9.7l2.4-5.7L32.4,0.5z"/>
<path class="st2" d="M2.1,0.5l13,9.8l-2.3-5.8L2.1,0.5z"/>
<path class="st2" d="M27.7,23l-3.5,5.3l7.5,2.1l2.1-7.3L27.7,23z"/>
<path class="st2" d="M0.7,23.1l2.1,7.3l7.5-2.1L6.8,23L0.7,23.1z"/>
<path class="st2" d="M9.9,14l-2.1,3.1l7.4,0.3l-0.2-8L9.9,14z"/>
<path class="st2" d="M24.6,14l-5.2-4.6l-0.2,8.1l7.4-0.3L24.6,14z"/>
<path class="st2" d="M10.3,28.3l4.5-2.2l-3.9-3L10.3,28.3z"/>
<path class="st2" d="M19.7,26.2l4.5,2.2l-0.6-5.2L19.7,26.2z"/>
<path class="st3" d="M24.2,28.3l-4.5-2.2l0.4,2.9l0,1.2L24.2,28.3z"/>
<path class="st3" d="M10.3,28.3l4.2,2l0-1.2l0.4-2.9L10.3,28.3z"/>
<path class="st4" d="M14.6,21.2l-3.7-1.1l2.6-1.2L14.6,21.2z"/>
<path class="st4" d="M20,21.2l1.1-2.3l2.6,1.2L20,21.2z"/>
<path class="st5" d="M10.3,28.3L11,23l-4.1,0.1L10.3,28.3z"/>
<path class="st5" d="M23.5,23l0.6,5.3l3.5-5.2L23.5,23z"/>
<path class="st5" d="M26.7,17.1l-7.4,0.3l0.7,3.8l1.1-2.3l2.6,1.2L26.7,17.1z"/>
<path class="st5" d="M10.8,20.1l2.6-1.2l1.1,2.3l0.7-3.8l-7.4-0.3L10.8,20.1z"/>
<path class="st6" d="M7.8,17.1l3.1,6.1l-0.1-3L7.8,17.1z"/>
<path class="st6" d="M23.7,20.1l-0.1,3l3.1-6.1L23.7,20.1z"/>
<path class="st6" d="M15.2,17.4l-0.7,3.8l0.9,4.5l0.2-5.9L15.2,17.4z"/>
<path class="st6" d="M19.3,17.4l-0.4,2.4l0.2,5.9l0.9-4.5L19.3,17.4z"/>
<path class="st7" d="M20,21.2l-0.9,4.5l0.6,0.4l3.9-3l0.1-3L20,21.2z"/>
<path class="st7" d="M10.8,20.1l0.1,3l3.9,3l0.6-0.4l-0.9-4.5L10.8,20.1z"/>
<path class="st8" d="M20,30.3l0-1.2l-0.3-0.3h-5l-0.3,0.3l0,1.2l-4.2-2l1.5,1.2l2.9,2h5.1l3-2l1.4-1.2L20,30.3z"/>
<path class="st9" d="M19.7,26.2l-0.6-0.4h-3.7l-0.6,0.4l-0.4,2.9l0.3-0.3h5l0.3,0.3L19.7,26.2z"/>
<path class="st10" d="M33,10.8l1.1-5.4l-1.7-5L19.7,9.8l4.9,4.1l6.9,2l1.5-1.8l-0.7-0.5l1.1-1l-0.8-0.6l1.1-0.8L33,10.8z"/>
<path class="st10" d="M0.4,5.4l1.1,5.4l-0.7,0.5l1.1,0.8l-0.8,0.6l1.1,1l-0.7,0.5L3,16l6.9-2l4.9-4.1L2.1,0.5L0.4,5.4z"/>
<path class="st7" d="M31.5,16l-6.9-2l2.1,3.1l-3.1,6.1l4.1-0.1h6.1L31.5,16z"/>
<path class="st7" d="M9.9,14L3,16l-2.3,7.1h6.1l4.1,0.1l-3.1-6.1L9.9,14z"/>
<path class="st7" d="M19.3,17.4l0.4-7.6l2-5.4h-8.9l2,5.4l0.4,7.6l0.2,2.4l0,5.9h3.7l0-5.9L19.3,17.4z"/>
</svg>