<svg xmlns="http://www.w3.org/2000/svg" width="1839" height="3489.6" viewBox="0 0 1839 3489.6"><path d="M1838.9,981.1a650.2,650.2,0,0,0-130.1,43.2c-19.4,8.8-41.9,17.8-57.2,33.5s-17,36.7-25.9,55.2c-6.9,14.2-19.6,28.1-35.9,28.6-33.7.9-40.6-46.3-57.2-67.3-25.6-32.5-70.8-41.8-106.2-21-17.4,10.2-27.1,24.7-36.6,42.3-8.7,16-25.8,17.5-39.3,6.1-21.3-17.9-18.5-51.6-3.4-72.7,18.9-26.2,52.9-27.8,77.6-9.1,28,21.1,36.8,58.3,22,90.4s-51.9,50.5-86.7,41.1c-32.1-8.7-52.2-37.6-56.4-70.5-10.9-84.4,60.4-139.4,94.1-207.4,4.9-10,12-24.1,6.4-35.2-2.5-5-8.7-10-14.5-8.1s-7.6,7.8-9.7,12c-10.1,20.1-13.9,42.9-13.9,65.3-.1,46.1,15.3,89.8,26.8,133.8,10.4,39.7,17.4,81,8.3,121.8-8.5,37.8-31.1,68.5-65.9,84.3-31.9,14.4-68.2,20.5-102.9,21.7,0,0-294.8,12.5-700.8,174.5s-505,373-437,464,190-52,108-119-254,105-149,271,200,623,136,776" fill="none" stroke="#000" stroke-miterlimit="10"/><path d="M1049.4,3487.1c-181.9-142.4-295.9,30.1-497.1-19.6,5.3,14-22.9,12.8-27,.4-5-15.5-30.4-29.1-30.3-57.8,0-.3-11.6-72.7-11.9-73.7-3-10.3,42.1-8.4,42-8.2-12.9,23.9,33,29,36.1,32.1,6.6,6.6-13.3-1.3-16.7-2.1-34.1-7.6-21.4-31.3-21.7-31.3-46.7-5.9-27.4,30.5-24.2,55.8,3.7,28.7,12,30.4,19.2,49,1.9,5,33.3,42.5,34.4,36.9,5.7-27.6-9.9-45.5,10.3-86.2,1.8-2.1,4.6-29.2,8.8-39,6.8-16,114.7-99.4,135.3-108.9s62.1-48.2,45-61.7c-43.6-34.5-139.4,52.3-165.2,80.8-20.6,22.7-49.8,27.3-38.7,48,19,35.6,27.4,28,49.8,25.3,36.3-4.5,47.9-31.3,64.4-37.8,7-2.8,9.8,38.3,11.6,49.6,6.9,43.3,17.1,72.3-21.7,91.2-25.3,12.3-87.1-52.8-86.9-53.6,13.1-64.2,53.1-46.6,71.3-69.8,15.6-20,107-75.2,112.1-82.4,83.9-118.4-158.7-36.1-127.3-137.8a22.3,22.3,0,0,0,1-4.3c.5-2.4,57.3-147.7,60.6-154.4,21.6-44.5-7-4.8-14.4,24.8-15.3,61.4,36.9,58.8,54,74.4s28.4,21.1,44,33.5c-3.6,1.7-36-15.9-41.6-21.9-20-20.9-37.8-19-10.5-25.7,24.2-6,15.9-7.5,29.4-17.3,15.5-11.3,6.5-47.5,1.6-63.3-6.6-21.6,28.6-7.4,32.1-18.8,4.6-14.7,4.8-13.1-3.8-13.9-28.9-2.6,5.8,2.6,8,2.4,18.4-1.6,19.8,10.1,25.5-5.4,1.6-4.4-26.6-7-31.6-11.3-13-10.9-5.5,1.7-12.4,10.8-18.5,24.5-9.4-34.2,2.9-28.4,15.1,7.3.5,15.1-.8,18.1-9,21.4-12.7,10.3-14.9,11.5-20.6,11.2-5.9-24.5-4.4-26.9,16.6-27.3,12.4,36.8-.4,31.5s4.2-9.6-6.5-2.2c-13.1,9-8.8-32.2-2.4-33.7,15.6-3.8,5.9,7.4,5.8,9.8-1.8,30.6-12.6,30.2-12.6,11.7,0-29.8,8.1-17.2.6-20s-16.7,8.6-14.4,5.6c7.9-10.3,18.2-4.1,15.7-3.5-1.9,8,4.3,30.5-1.9,30-10-.9-13.3-20.3-13.3-20.5-1.3-34.2-42.7,3-21.7,14.7,12,6.7,13-.2,25.4,11.3,50.8,46.6,70.7-12.2,30.5-2.3-8.7,2.1-34.7-.5-29.6-10.4,7.8-14.9-7.7-13.1-11.4.7-3.2,12,15,21.4,24.4,25.7,26.5,12.4,18.4,4.9,38.3-2.8,3.6-1.4,11.8,39.2,14.7,46.6,5.1,13.1,12.1,83.8,6,92-9.9,13.2-21.5,11.1-32.4,1-3.2-2.9-10.7-64.7-10.5-69.9.2-7.6-20.4-23.6-27.1-28.7-24.2-18.4-23.4-59.2-45.8-51.7-4.9-1.5-36.1-9.9-32.4-16.9,6.2-11.5-1.3-13.2.7-17.8-8-23.1,10.9-21.2,25.4-16.2-1.2-15.1,14.8-9,11.3-17.5-4.2-10.2-1-16.3-1.1-16.3-1.2,3.4-3.2,5-6.5,6.1-24.6,8.5-23-4.4-13.8-21.8.7-1.2-31.9.1-38.1-7.4-8-9.8,58.6,12.2,59.2,12.3,22.9,2.6,7.6,26.7,4.7,27.1-8.6,1.3,1.2-41.8,1.2-49.5,0-1.9-9-24.4-10-25.2-22.9-19.5-35.1,2.7-46.8,15.9-30.1,34.1-2.9,14.8,5.3,1.6,11.9-19.1,28.5-29.2,43-5.6,10.2,16.5,23.9,3.5,15.5-11.9-12.2-22.3-32.9-24.4-55.3-29-46.6-9.5-72.2,48.3-62.5,83.9,5,18.8-21.9,26.9-23.5,40.2,7.4,4.7,36.2-58.4,40.8-60.9,39.1-21,24.1,35.8,8.2,27.4-19.8-10.5,4.3-51.6,9.7-33.8,4.3,14.7-39.7,119.6,17.1,111.5,15-2.2,16.8-15.5,15.8-12.2-4.6,14.7-28.6,17.4-40,6.1-18.5,0-62.2-18.6-54.6-36.9-.8,6-55.2-3.3-61.1,1.3-21.3,16.5-55.6,39.2-83.3,39.2h-1.8c-20.9-.8-31,33.8-24.7,31.2,22-9.1,3.9-46-1.4-61.3-8.3-24-2.1-51.6-31.2-52.6-8-.2-18.1-33.8-16.7-36.7,8.5-17.8.1-32.2,2.4-42.2,7.6-33.2,9.4,14,10.5,15.7,10.8,16,5.2-25.8,8.7-33.2,10.9-23.5,6.1,31,6.1,31.2,5.5,18,8.3-34.1,8.9-35,12.7-18.7,6.5,40.4,6.1,42.4.7.3,7.2-9.4,8.8-12,20.4-33.6,26.7-21.9,12.6-.1-1,1.5-28.6,52.2-10.6,44.3,56.7-24.8-6.4,42.9-31.3,23.3-38.2-30-15.9,139.3,14.1,142.2,53.2,5.1,37,1.1,84-8.4,38.9-7.8.4,3.7-5.3,6.5-9.3,4.5-24.8-36-26.8-45.6-4.7-22.2,70.6-49,71-48.6-37,37-44.4,312.1-8.9,294.3,32-16.1,45.6-35.5,85.6-28.1,55.5,10.4,78.4-14.3,38.9-.6-44.7,15.6-19.7,2.1-59.6-11-11.2-3.7-32.5,9.8-41.4,17.1-17.1,14.1-40.2,17.2-39.4,38.6,1.1,28.8,20.9,75.7,52.6,81.8s64.9,40.2,34.2,30.2c-33.6-11-21.2-48.4-44.3-21.1-4.4,5.2-14.9,34.1-17.5,31.1-4.9-5.8-29.9-15.5-29.9-21.8,0-23.4,40.1-17,54.2-14.6,7.3,1.2-23.3,51-28.2,56.6-2.9,3.3,24.7,14.5,24.8,14.5,49.2-1.4,28.7-30.6,44.5-36,5.7-2-2.2-5.5-2.4-5.6-12.1-2.5-37-32.9-39.8-33.2-50.9-4.4-45.4,15.1-54.2,17.8s-49.3-25.8-50-26.8c-13.4-18.3-46.4,12.7-39-15.6,4-15.1,78.8-2.8,95.6-7.4s22.5,11.6,20.4,11.6c-24-1-40,5.8-63.1,2.2-8.8-1.3-48.6-5.5-50.9,7.1-128-69.8-154.7-215.3-178.6-346.5" fill="none" stroke="#000" stroke-linecap="round" stroke-linejoin="round" stroke-width="5"/></svg>