<svg id="레이어_1" data-name="레이어 1" xmlns="http://www.w3.org/2000/svg" viewBox="0 0 2044.31 3324.23"> <path id="path16" d="M1891.17,1383a659.23,659.23,0,0,0-120.81,38.89c-18.58,8-37.8,16.3-54.88,27.46a78.78,78.78,0,0,0-31.59,39.28c-6.84,17.85-10.88,40.43-28.63,50.7-17.24,10-30.94-3.7-39-18.39-7.49-13.62-12.49-28.58-21.91-41a94.75,94.75,0,0,0-39.06-30.17c-30.9-12.88-65.91-6.71-91.7,14.74a94.54,94.54,0,0,0-15.84,16.92c-5.51,7.57-8.29,17.65-14.38,24.59-7.9,9-20.65,2.23-26.94-5.32a37.46,37.46,0,0,1-8.2-20.35c-3-30.6,22.49-59.8,53-53.87,35.76,6.94,56.13,47.34,44.83,81.75-12.61,38.4-55.26,57-90.91,39.6-31.06-15.14-41.43-50.94-38.73-83.91,3.1-37.8,22.19-69.73,43.4-99.7,11.57-16.32,23.72-32.23,34.61-49,10.09-15.58,22.2-33.88,24.81-52.8,2-14.16-5.19-30.44-20.42-32.39-16.72-2.13-24.2,18.27-28.94,31.21-13.56,37.07-10.28,78.55-2.09,116.46,16,74.19,58.29,163,11,234.5-21.91,33.09-61.24,45.12-97.75,51.81a314.26,314.26,0,0,1-97.37,2.29c-62.57-8.22-124.38-35.8-167.1-84.53a220.87,220.87,0,0,1-27.83-40.2c-1.5-2.78-5.77-3.55-7.9-1l-2.31,2.69,8.6,3.67c-7.72-186.49-15.53-373-16.83-559.71-.65-92.68.3-185.38,3.66-278q2.57-70.29,7.05-140.49c1.5-23.12,3.28-46.23,5-69.33,1.16-15.27,1.39-30.82-1.64-45.89-5.6-27.9-28.49-51.21-57.78-40.9-34.38,12.09-44.44,49.87-41.52,83.63,1.85,21.38,6.65,42.51,10.55,63.56,4.08,22.08,9.94,44.62,11.16,67.07q3.44,63.22,5.49,126.5c3.26,105,5.67,212.28-8.92,316.56-1.92,13.78-4.23,27.5-7.19,41.08-2.71,12.46-6.53,24.63-8.91,37.17-6.37,33.57-8.5,68.17-7.87,102.32.68,36.9,6.75,74.5,26.08,106.28,6.9,11.33,17.42,20,22.75,32,2.51,5.62,9.5,1.94,10.06-2.81a339,339,0,0,0,1.22-70.42c-1-11.13-2.49-22.24-4.56-33.22-1.55-8.24-3.39-17-9.66-22.91-12.29-11.59-30.48-2.9-40.48,7.39S918.47,1291,915.56,1305c-5.76,27.73.63,58.92,19.5,80.1,21,23.56,54.08,27.31,81.57,14.18,29.05-13.88,47.42-44.68,43.91-77.72-3.43-32.3-25-62.33-55.36-72.73-16.42-5.63-35.86-5.54-51,3.93s-23.44,26.34-28.39,43.24c-9.33,31.86-9.43,66.27-2.36,98.6,15.9,72.78,68.64,137,138.69,159.15.47-3.63,1-7.27,1.44-10.91a938.8,938.8,0,0,1-202-4.71l5.2,4.08c-7.61-26.25.45-49.21,22.32-64.21,18.6-12.75,40.78-21.94,61.81-29.63,45.72-16.7,94.53-18.43,142.25-11.1,23.23,3.57,46.27,10.15,66.74,22.24,18,10.62,33,25.59,45.46,42.57,14.4,19.7,23,43,20.38,67.88-3.27,31.55-18.89,60.47-36.12,86.16-65.07,97-181.34,161.91-296.67,127.48-52.94-15.8-97.16-53.38-124-102.66-28.52-52.32-34.73-114.69-20-172.48,7.56-29.58,20.89-55.89,36.75-81.57,14.35-23.26,30.21-47.2,36-74.53a91.47,91.47,0,0,0,.24-38.56c-3.32-15.35-10.6-29.44-13.86-44.84a120.57,120.57,0,0,1,10.07-78.33c24.13-47.65,86-69.43,131.6-39.77,36.15,23.5,51.64,77.43,95.72,88.86,27.32,7.08,50-10.94,76.14-14.09,12.79-1.54,27.78,1,34,14.16,5.81,12.18,2,27.43-3.32,39-11.09,24-32.38,42.35-34,70.41-1.17,19.83,8.22,38.26,18.65,54.22,11.24,17.21,25,33.1,33.59,52,10.63,23.32,5,44.93-12.32,63.14-22.27,23.45-48.43,43.71-72.57,65.07-23.38,20.67-46.47,41.93-71.91,59.92-25.64,18.14-53.23,31.58-83.71,38.43-32.84,7.38-66.84,8.93-100.32,10.89-68,4-136.09,5-204.17,5.65-98.93,1-197.78-3.93-296.71-.21-31.95,1.2-63.82,3.33-95.73,5.43-4.89.32-4.93,8.19,0,7.86,114.14-7.49,228.44-2.82,342.67-1.84,65.42.56,131-.64,196.36-3,36.33-1.33,72.72-3.06,108.94-6.39,32.42-3,64.75-8.28,94.74-21.85,28.47-12.88,53.75-32,77.68-52.16,26.73-22.56,52.63-46.18,78.84-69.37,20.62-18.25,49-37.67,54-67.36,3.48-20.58-5.18-39.84-15.93-56.67-11.82-18.5-26.77-35.32-35.7-55.64-4.54-10.32-7-21.74-5.09-33,2.56-15,11.85-27.72,20-40,13.29-19.83,28.21-48.45,14.17-72.09-14.23-23.94-44.6-19.39-66.43-11.6-14.43,5.14-29.37,11.81-45,9.29-11.24-1.81-21.12-7.91-29.52-15.58-18-16.43-30.71-38-47.44-55.63-17.45-18.44-39.13-29.78-64.21-31.87a105,105,0,0,0-73.18,22c-20.3,16.07-34,40-39.85,65.52-6.57,28.81-2.36,55.93,7.44,83.29,5.64,15.72,9.24,31.19,6.38,48-2.56,15-8.69,29-15.79,42.17-14.86,27.7-33.67,52.82-45.81,82.07-23.45,56.47-27.25,122-7,180.13,18.52,53.24,55.66,99.8,104.34,126.64,52.9,29.16,116.54,34.06,174.23,18.77,56.76-15,107.33-49.91,146.5-94.26,19.79-22.4,37.72-47.53,50.92-74.65,12.87-26.42,21.78-57.13,15.34-86.7-9.55-43.84-47.81-81.54-86.75-98.58-21.7-9.5-44.89-14.25-68.27-16.7-25.16-2.64-50.71-3.72-75.86-.49s-49.53,10.45-73,20.48c-21,9-44.2,18.18-60.7,34.9-17.25,17.51-20.67,42.43-13.9,65.77.75,2.6,2.76,3.75,5.2,4.08a938.8,938.8,0,0,0,202,4.71c5.92-.49,7.49-9,1.43-10.9-52.59-16.61-94.47-58.44-117.34-109.31a207.84,207.84,0,0,1-18.42-82.52c-.29-27.31,3.64-64.85,24.5-84.3,25.11-23.41,64.4-6.27,81.83,18.36,16.42,23.2,20.34,55.45,4.24,79.92-15.46,23.49-46.36,36.79-73.14,28.1-23.48-7.62-37.74-31.09-41.43-55.13a84.92,84.92,0,0,1,3.65-40.85c4.64-13.16,15.55-31.39,30.82-32.34,11.16-.7,13.16,11.53,14.8,20.25a313.79,313.79,0,0,1,4.45,33.47,340.89,340.89,0,0,1-1.49,67.22l10.06-2.8c-5.43-12.2-15.79-20.59-22.76-32-9.43-15.5-15.62-32.77-19.49-50.56-8.08-37.06-6.31-77.12-2.55-114.68,3.16-31.48,12.35-61.07,17.72-92,15.3-88.22,15.21-179.57,14-268.84q-.72-54-2.94-107.91c-1.63-41.51-1.68-83.66-9.25-124.52q-6-32.41-12-64.83c-3.77-20.52-7.75-42-3.77-62.79,3.35-17.57,13.69-33.44,30-40.84,14.95-6.79,31.64-2,40.47,12.22,7.79,12.55,9.26,28.54,9.37,43.06.15,19.06-2.26,38.18-3.62,57.17q-4.8,66.76-7.66,133.67c-3.91,89.76-5.45,179.62-5.36,269.46.19,179.89,6.9,359.69,14.47,539.39l2.88,67.8c.18,4.18,5.56,7.21,8.6,3.66l2.31-2.7-7.91-1c32.94,60.48,91,100.9,155.11,119.57a322,322,0,0,0,101.49,12.47c34.67-1.24,70.93-7.27,102.84-21.73,34.87-15.83,57.42-46.43,65.93-84.31,9.15-40.74,2.12-82.08-8.3-121.79-11.52-44-26.9-87.66-26.79-133.78,0-22.41,3.81-45.21,13.89-65.27,2.14-4.24,4.86-10.35,9.7-12,5.81-2,12,3,14.49,8,5.64,11.1-1.46,25.19-6.39,35.16-33.68,68.07-105,123-94.14,207.42,4.24,32.88,24.3,61.86,56.46,70.52,34.75,9.36,71.28-7.59,86.7-41.13,14.75-32.09,6-69.24-22-90.35-24.7-18.67-58.79-17.07-77.62,9.13-15.08,21-17.92,54.73,3.38,72.67,13.51,11.36,30.59,9.9,39.28-6.15,9.5-17.56,19.24-32.07,36.66-42.3,35.35-20.78,80.6-11.43,106.2,21,16.59,21,23.43,68.24,57.14,67.26,16.36-.48,29-14.4,35.87-28.53,9-18.5,11.2-40,26-55.23,15.27-15.72,37.76-24.65,57.18-33.5a642.84,642.84,0,0,1,65-25.41,663.9,663.9,0,0,1,65.18-17.84c4.87-1.07,2.8-8.75-2.06-7.68h0" transform="translate(62.5 -410)"/><path id="path20" class="cls-1" d="M-58,3321.75c300.61,53,350.15-276.24,747.2-59.59,4.41-24,80.1-16.1,96.71-13.5,44,6.85,74.41-6.1,120-4.3,4,.16-9.64-30.08-38.76-22.07-31.95,8.81-174.09-14.52-181.66,14.15-14.21,53.78,48.63-5.08,74,29.7,1.35,1.85,78.81,56.11,95,51,16.71-5.3,6.24-42.3,102.95-33.89,5.33.46,52.67,58.3,75.73,63.13.4.08,15.38,6.77,4.48,10.51-30.07,10.33,9,65.76-84.5,68.56-.23,0-52.61-21.41-47.09-27.69,9.25-10.52,67.36-105.14,53.47-107.53-26.7-4.61-103-16.77-103,27.69,0,12,47.53,30.45,56.92,41.46,4.84,5.68,24.88-49.24,33.23-59.14,43.76-51.87,20.3,19.22,84,40.12,58.37,19.12-6.48-46-64.83-57.31-60.3-11.65-98-100.77-100.1-155.56-1.56-40.62,42.41-46.52,75-73.35,16.82-13.85,57.3-39.52,78.67-32.48,75.74,25,28.18,50.53,113.27,21,74.94-26,31.49,20.79-74,1.15-76.06-14.17-101.9,22.74-162.74,53.27-67.36,33.81-53.23-488.86,17.07-559.21-.78-.84-143.91,50.23-135,92.27,3.88,18.35,33.23,95.36,51,86.7,10.69-5.19,83.93-27.22,10-12.24-89.28,18.08-58.5,25.59-159.52,15.84-57-5.49-99.48-327.22-26.91-270.26,47.42,37.24,167.24-91.41,59.59-44.13-34.18,15,18.15-81.32,20-84.21,26.9-41.46,14.88-63.73-23.83.18-3,5-15.44,23.3-16.83,22.74.92-3.79,12.56-116-11.56-80.52-1.18,1.75-6.46,100.66-16.79,66.47-.11-.33,9-104-11.76-59.3-6.56,14.14,4.11,93.55-16.44,63.12-2.18-3.23-5.59-92.91-19.93-29.88-4.34,19,11.64,46.38-4.59,80.21-2.62,5.46,16.45,69.32,31.69,69.81,55.37,1.8,43.47,54.26,59.3,100,10,29,44.49,99.13,2.69,116.4-12,5,7.18-60.87,47-59.29,1.06,0,2.37,0,3.44,0,52.68,0,117.7-43,158.15-74.5,11.31-8.78,114.78,9,116.3-2.48-14.52,34.85,68.47,70.1,103.75,70.1,21.61,21.56,67.22,16.45,75.92-11.46,2-6.43-1.54,18.93-30.08,23-107.87,15.45-24.18-183.93-32.49-211.73-10.13-33.93-56,44.26-18.34,64.18,30.11,15.91,58.66-91.93-15.65-52-8.78,4.71-63.47,124.6-77.44,115.64,3-25.31,54.17-40.68,44.51-76.29-18.4-67.71,30.25-177.55,118.78-159.49,42.58,8.68,82,12.68,105.15,55,16.06,29.39-10.11,54-29.41,22.62-27.6-44.85-59.13-25.48-81.76,10.8-15.53,24.92-67.32,61.68-10.09-3.06,22.26-25.19,45.46-67.31,89-30.36,2,1.67,18.93,44.36,18.93,48,0,14.57-18.56,96.5-2.19,94.07,5.53-.82,34.63-46.58-9-51.57-1.19-.14-127.64-41.91-112.41-23.32,11.65,14.23,73.66,11.66,72.41,14.06-17.5,33-20.55,57.46,26.15,41.45,6.36-2.18,10.14-5.1,12.4-11.66.16-.05-5.93,11.69,2,30.95,6.7,16.28-23.75,4.51-21.48,33.23-27.5-9.5-63.36-13-48.14,30.94-3.84,8.56,10.32,11.94-1.33,33.81-7,13.18,52.22,29.25,61.51,32.09,42.47-14.36,41.07,63.23,87,98.28,12.69,9.69,52,40,51.48,54.46-.34,9.86,13.92,127.3,20,132.9,20.71,19.2,42.8,23.16,61.58-2,11.65-15.62-1.76-150-11.47-174.76-5.52-14.12-21.11-91.22-27.79-88.63-38,14.69-22.52,29-73,5.43-17.72-8.26-52.31-26.21-46.24-48.88,7-26.24,36.42-29.73,21.68-1.44-9.84,18.89,39.63,23.86,56.25,19.77,76.28-18.76,38.61,92.9-57.95,4.39-23.72-21.74-25.46-8.62-48.43-21.47-39.78-22.27,38.8-92.85,41.35-27.9,0,.38,6.21,37.34,25.22,39,11.83,1,.12-41.84,3.65-57.1,4.8-1-14.86-12.74-29.82,6.78-4.39,5.73,12.17-16.33,27.32-10.71,14.22,5.27-1.15-18.61-1.15,38.11,0,35.09,20.56,35.81,24-22.23.29-4.7,18.69-25.87-11.07-18.73-12.14,2.91-20.24,81.09,4.69,64,20.21-13.88-12.06-5.84,12.22,4.19s32.33-111.61.75-59.69c-2.77,4.55-30.63,72.28,8.42,51,4.11-2.24,11.19,18.84,28.35-21.77,2.47-5.85,30.17-20.65,1.44-34.38-23.32-11.15-40.52,100.39-5.43,53.86,13.08-17.34-1.09-41.18,23.47-20.43,9.57,8.08,63.23,13.12,60.18,21.38-10.83,29.43-13.46,7.32-48.42,10.31-4.2.36-70.29-9.46-15.3-4.49,16.25,1.48,16-1.56,7.27,26.37-6.78,21.7-73.64-5.39-61,35.72,9.22,30.08,26.47,98.84-3.15,120.33-25.52,18.53-9.86,21.49-55.85,32.84-51.79,12.78-18,9.1,20,48.89,10.68,11.23,72.22,44.68,79.17,41.55-29.73-23.58-50-32.78-83.67-63.59-32.41-29.7-131.64-24.7-102.55-141.55,14-56.27,68.4-131.71,27.22-47-6.17,12.66-114.17,288.81-115,293.29a56.66,56.66,0,0,1-1.9,8.31c-59.81,193.19,401.26,36.73,241.82,261.86-9.65,13.61-183.3,118.61-213,156.44-34.59,44.11-110.72,10.67-135.62,132.74-.29,1.45,117.09,125.24,165.23,101.83,73.75-35.86,54.31-90.94,41.25-173.28-3.4-21.44-8.74-99.66-22.14-94.36-31.33,12.4-53.23,63.35-122.26,71.84-42.55,5.23-58.61,19.68-94.75-47.94-21.12-39.48,34.42-48.1,73.53-91.28,49.12-54.23,231.12-219.17,314-153.57,32.52,25.72-48.38,100-85.59,117.28-39,18.15-244,176.49-257,207-7.94,18.63-13.34,70.15-16.63,74.13-38.53,77.24-8.91,111.3-19.58,163.78-2.15,10.55-61.85-60.61-65.52-70.1-13.69-35.47-29.36-38.73-36.38-93.09-6.23-48.24-42.72-117.43,45.94-106.12.51.06-23.48,45,41.16,59.49,6.46,1.45,44.31,16.45,31.79,3.93-5.85-5.85-93-15.51-68.66-61,.21-.39-85.44-4-79.73,15.65.53,1.81,22.53,139.42,22.53,140-.09,54.53,48.11,80.5,57.69,109.92,7.7,23.63,61.37,25.79,51.29-.86,382.32,94.48,598.91-233.24,944.65,37.26" transform="translate(62.5 -410)"/></svg>