<svg xmlns="http://www.w3.org/2000/svg" viewBox="0 0 1839 2276.1">
<path d="M1002.9,2273.6C821,2131.3,707,2303.7,505.8,2254c5.3,14.1-22.9,12.9-27,.5-5-15.5-30.4-29.2-30.3-57.9,0-.3-11.6-72.7-11.9-73.6-3-10.4,42.1-8.5,42-8.3-12.9,24,33,29.1,36.1,32.1,6.6,6.6-13.3-1.3-16.7-2-34.1-7.6-21.4-31.3-21.7-31.3-46.7-6-27.5,30.4-24.2,55.8,3.7,28.6,12,30.3,19.2,49,1.9,5,33.3,42.4,34.4,36.9,5.7-27.6-9.9-45.5,10.3-86.2,1.8-2.1,4.6-29.2,8.8-39,6.8-16.1,114.7-99.4,135.2-108.9s62.2-48.2,45.1-61.7c-43.6-34.6-139.4,52.2-165.2,80.8-20.6,22.7-49.9,27.2-38.7,48,19,35.6,27.4,28,49.8,25.2,36.3-4.4,47.9-31.3,64.4-37.8,7-2.8,9.8,38.4,11.6,49.7,6.9,43.3,17.1,72.3-21.7,91.2-25.3,12.3-87.1-52.9-86.9-53.6,13.1-64.3,53.1-46.7,71.3-69.9,15.6-19.9,107-75.1,112.1-82.3,83.9-118.5-158.7-36.1-127.3-137.8a21.6,21.6,0,0,0,1-4.4c.5-2.3,57.3-147.6,60.5-154.3,21.7-44.6-6.9-4.9-14.3,24.7-15.3,61.5,36.9,58.9,54,74.5s28.4,21.1,44,33.5c-3.6,1.6-36-16-41.6-21.9-20-20.9-37.8-19-10.5-25.7,24.2-6,15.9-7.5,29.3-17.3,15.6-11.3,6.6-47.5,1.7-63.3-6.6-21.6,28.6-7.4,32.1-18.8,4.6-14.7,4.7-13.1-3.8-13.9-28.9-2.6,5.8,2.6,8,2.4,18.4-1.6,19.8,10,25.5-5.4,1.6-4.4-26.6-7-31.6-11.3-13-10.9-5.5,1.6-12.4,10.8-18.5,24.4-9.4-34.3,2.9-28.4,15.1,7.2.5,15-.8,18.1-9,21.4-12.8,10.3-14.9,11.5-20.6,11.2-5.9-24.5-4.4-26.9,16.6-27.3,12.4,36.7-.4,31.4s4.2-9.5-6.5-2.2c-13.1,9-8.8-32.1-2.4-33.6,15.6-3.8,5.9,7.3,5.8,9.8-1.8,30.6-12.6,30.2-12.6,11.7,0-29.8,8.1-17.3.6-20s-16.7,8.6-14.4,5.6c7.9-10.3,18.2-4.1,15.7-3.6-1.9,8.1,4.3,30.6-1.9,30.1-10-.9-13.3-20.3-13.3-20.5-1.3-34.2-42.7,2.9-21.7,14.6,12,6.8,13-.1,25.4,11.3,50.8,46.6,70.7-12.1,30.5-2.3-8.7,2.2-34.7-.4-29.6-10.4,7.8-14.9-7.7-13-11.4.8-3.2,11.9,15,21.4,24.4,25.7,26.5,12.4,18.4,4.9,38.3-2.8,3.6-1.4,11.8,39.2,14.7,46.6,5.1,13,12.1,83.7,6,92-9.9,13.2-21.5,11.1-32.4,1-3.2-2.9-10.7-64.7-10.5-69.9.2-7.7-20.4-23.6-27.1-28.7-24.2-18.4-23.5-59.3-45.8-51.7-4.9-1.5-36.1-10-32.4-16.9,6.2-11.5-1.3-13.3.7-17.8-8-23.1,10.9-21.3,25.4-16.3-1.2-15.1,14.8-8.9,11.3-17.5-4.2-10.1-1-16.3-1.1-16.2-1.2,3.4-3.2,5-6.5,6.1-24.6,8.4-23-4.4-13.8-21.8.7-1.3-31.9.1-38.1-7.4-8-9.8,58.6,12.2,59.2,12.3,22.9,2.6,7.6,26.7,4.7,27.1-8.6,1.3,1.2-41.8,1.2-49.5,0-1.9-9-24.4-10-25.3-22.9-19.4-35.1,2.7-46.8,16-30.1,34.1-2.9,14.7,5.3,1.6,11.9-19.1,28.5-29.3,43-5.7,10.2,16.5,23.9,3.6,15.5-11.9-12.2-22.2-32.9-24.4-55.3-28.9-46.6-9.5-72.2,48.3-62.6,83.9,5.1,18.7-21.8,26.8-23.4,40.1,7.4,4.8,36.2-58.3,40.8-60.8,39.1-21,24.1,35.8,8.2,27.4-19.8-10.5,4.3-51.6,9.7-33.8,4.3,14.6-39.7,119.6,17.1,111.4,15-2.1,16.8-15.5,15.8-12.1-4.6,14.7-28.6,17.4-40,6-18.5,0-62.2-18.5-54.6-36.8-.8,6-55.2-3.4-61.2,1.3-21.2,16.5-55.5,39.2-83.2,39.2h-1.8c-20.9-.9-31,33.8-24.7,31.2,22-9.1,3.9-46-1.4-61.3-8.3-24.1-2.1-51.7-31.2-52.6-8-.3-18.1-33.9-16.7-36.7,8.5-17.8.1-32.2,2.4-42.3,7.6-33.1,9.4,14.1,10.5,15.8,10.8,16,5.2-25.8,8.7-33.2,10.9-23.6,6.1,31,6.1,31.2,5.5,18,8.3-34.1,8.9-35,12.7-18.7,6.5,40.4,6.1,42.4.7.3,7.2-9.4,8.8-12,20.4-33.6,26.7-21.9,12.6-.1-1,1.5-28.6,52.2-10.6,44.3,56.7-24.9-6.4,42.8-31.3,23.2-38.2-29.9-15.9,139.4,14.1,142.2,53.2,5.2,37,1.2,84-8.3,38.9-7.9.3,3.7-5.3,6.4-9.3,4.6-24.8-35.9-26.8-45.6-4.7-22.1,70.6-49,71-48.5-37,37-44.4,312-8.9,294.2,32-16,45.6-35.5,85.6-28,55.5,10.3,78.4-14.3,38.9-.6-44.7,15.5-19.7,2.1-59.6-11.1-11.2-3.7-32.5,9.8-41.4,17.1-17.1,14.1-40.3,17.3-39.4,38.6,1.1,28.9,20.9,75.8,52.6,81.9s64.9,40.2,34.2,30.1c-33.6-11-21.2-48.4-44.3-21.1-4.4,5.2-14.9,34.1-17.5,31.1-4.9-5.7-29.9-15.5-29.9-21.8,0-23.4,40.1-17,54.2-14.5,7.3,1.2-23.3,51-28.2,56.5-2.9,3.3,24.7,14.6,24.8,14.6,49.2-1.5,28.6-30.6,44.5-36.1,5.7-1.9-2.2-5.4-2.4-5.5-12.1-2.5-37-33-39.8-33.2-50.9-4.4-45.4,15-54.2,17.8s-49.3-25.8-50-26.8c-13.4-18.3-46.4,12.7-39-15.6,4-15.1,78.8-2.8,95.6-7.5s22.5,11.7,20.4,11.6c-24-.9-40,5.9-63.1,2.3-8.8-1.4-48.6-5.5-50.9,7.1-128-69.8-154.7-215.4-178.6-346.5-6.1-33.5-12.2-67-20.4-100-9.6-38.3-27.2-66.6-44.1-101.9-41.3-86.1-77.9-178.7-79.5-275.5-.6-44.7,6.6-89.3,22.5-131.2,46-121.3,144.3-169,239.8-243.7,18.6-14.5,139-100.1,96.2-135.7-24-20-58,32-30,34s40-37,40-37l-85-96-80,51,76-57-16-21s-126,64-60,78,75,124,75,124c20-59-33-26-33-26-9,40,33,26,33,26,43.4-12.4,81.5-58.6,111.4-89.7,39.3-41.1,72.3-87.3,111.4-128.1C603.5,447.4,768.4,364.4,916,379.1c85.5,8.4,160.9,53.3,246.9,61.7,78.3,7.6,178-18.7,197.4-105,9.2-40.8,2.1-82.1-8.3-121.8-11.5-44-26.9-87.7-26.8-133.8.1-22.4,3.9-45.2,13.9-65.3,2.2-4.2,4.9-10.3,9.7-12s12,3.1,14.5,8.1c5.7,11.1-1.4,25.2-6.4,35.1-33.7,68.1-105,123.1-94.1,207.5,4.2,32.8,24.3,61.8,56.5,70.5a74,74,0,0,0,86.6-41.1c14.8-32.1,6-69.3-21.9-90.4-24.7-18.7-58.8-17.1-77.6,9.1-15.1,21-18,54.8,3.3,72.7,13.5,11.4,30.6,9.9,39.3-6.2s19.3-32,36.7-42.2c35.3-20.8,80.6-11.5,106.2,21,16.6,21,23.4,68.2,57.1,67.3,16.4-.5,29-14.5,35.9-28.6,9-18.5,11.2-40,26-55.2s37.7-24.7,57.2-33.5a623.3,623.3,0,0,1,64.9-25.4,668.7,668.7,0,0,1,65.2-17.9" fill="none" stroke="#000" stroke-linecap="round" stroke-linejoin="round" stroke-width="5"/>
</svg>