<svg xmlns="http://www.w3.org/2000/svg" viewBox="0 0 1839 1394.7"><path d="M2.5,1203.7c-.6-44.7,6.6-89.3,22.5-131.2,46-121.3,144.3-169,239.8-243.7,18.6-14.5,139-100.1,96.2-135.7-24-20-58,32-30,34s40-37,40-37l-85-96-80,51,76-57-16-21s-126,64-60,78,75,124,75,124c20-59-33-26-33-26-9,40,33,26,33,26,43.4-12.4,81.5-58.6,111.4-89.7,39.3-41.1,72.3-87.3,111.4-128.1C603.5,447.4,768.4,364.4,916,379.1c85.5,8.4,160.9,53.3,246.9,61.7,78.3,7.6,178-18.7,197.4-105,9.2-40.8,2.1-82.1-8.3-121.8-11.5-44-26.9-87.7-26.8-133.8.1-22.4,3.9-45.2,13.9-65.3,2.2-4.2,4.9-10.3,9.7-12s12,3.1,14.5,8.1c5.7,11.1-1.4,25.2-6.4,35.1-33.7,68.1-105,123.1-94.1,207.5,4.2,32.8,24.3,61.8,56.5,70.5a74,74,0,0,0,86.6-41.1c14.8-32.1,6-69.3-21.9-90.4-24.7-18.7-58.8-17.1-77.6,9.1-15.1,21-18,54.8,3.3,72.7,13.5,11.4,30.6,9.9,39.3-6.2s19.3-32,36.7-42.2c35.3-20.8,80.6-11.5,106.2,21,16.6,21,23.4,68.2,57.1,67.3,16.4-.5,29-14.5,35.9-28.6,9-18.5,11.2-40,26-55.2s37.7-24.7,57.2-33.5a623.3,623.3,0,0,1,64.9-25.4,668.7,668.7,0,0,1,65.2-17.9" fill="none" stroke="#000" stroke-linecap="round" stroke-linejoin="round" stroke-width="5"/></svg>