<svg xmlns="http://www.w3.org/2000/svg" width="1664.3" height="1394.7" viewBox="0 0 1664.3 1394.7"><path d="M741.2,379.1c85.6,8.4,161,53.3,247,61.7,78.2,7.6,178-18.7,197.4-105,9.2-40.8,2.1-82.1-8.3-121.8-11.5-44-26.9-87.7-26.8-133.8.1-22.4,3.8-45.2,13.9-65.3,2.1-4.2,4.9-10.3,9.7-12s12,3.1,14.5,8.1c5.6,11.1-1.5,25.2-6.4,35.1-33.7,68.1-105,123.1-94.1,207.5,4.2,32.8,24.3,61.8,56.4,70.5a74.1,74.1,0,0,0,86.7-41.1c14.8-32.1,6-69.3-21.9-90.4-24.7-18.7-58.8-17.1-77.7,9.1-15,21-17.9,54.8,3.4,72.7,13.5,11.4,30.6,9.9,39.3-6.2s19.2-32,36.7-42.2c35.3-20.8,80.6-11.5,106.2,21,16.6,21,23.4,68.2,57.1,67.3,16.4-.5,29-14.5,35.9-28.6,8.9-18.5,11.2-40,25.9-55.2s37.8-24.7,57.2-33.5a633.9,633.9,0,0,1,65-25.4,668.7,668.7,0,0,1,65.2-17.9" fill="none" stroke="#000" stroke-linecap="round" stroke-linejoin="round" stroke-width="5"/></svg>