<svg xmlns="http://www.w3.org/2000/svg" width="1839" height="2276.1" viewBox="0 0 1839 2276.1"><path d="M1838.9,981.1a650.2,650.2,0,0,0-130.1,43.2c-19.4,8.8-41.9,17.8-57.2,33.5s-17,36.7-25.9,55.2c-6.9,14.2-19.6,28.1-35.9,28.6-33.7.9-40.6-46.3-57.2-67.3-25.6-32.5-70.8-41.8-106.2-21-17.4,10.2-27.1,24.7-36.6,42.3-8.7,16-25.8,17.5-39.3,6.1-21.3-17.9-18.5-51.6-3.4-72.7,18.9-26.2,52.9-27.8,77.6-9.1,28,21.1,36.8,58.3,22,90.4s-51.9,50.5-86.7,41.1c-32.1-8.7-52.2-37.6-56.4-70.5-10.9-84.4,60.4-139.4,94.1-207.4,4.9-10,12-24.1,6.4-35.2-2.5-5-8.7-10-14.5-8.1s-7.6,7.8-9.7,12c-10.1,20.1-13.9,42.9-13.9,65.3-.1,46.1,15.3,89.8,26.8,133.8,10.4,39.7,17.4,81,8.3,121.8-8.5,37.8-31.1,68.5-65.9,84.3-31.9,14.4-68.2,20.5-102.9,21.7,0,0-294.8,12.5-700.8,174.5s-366,339-376,342" fill="none" stroke="#000" stroke-miterlimit="10"/></svg>