<svg id="Layer_1" data-name="Layer 1" xmlns="http://www.w3.org/2000/svg" viewBox="0 0 6000 4000"><rect width="6000" height="4000" style="fill:#fff"/><path d="M1658.85,3014.72c226.87-122.25,461.06-134.82,616.9,83.45C2496,3406.59,2725.91,2935,2376.47,3077.7c-86.44,35.31,15.19,239.16,295.11,239.16,653.71,0,434.41,319.12,186.56,135.24-109.5-81.23,197.18-107.42,269.36-97.51,297.89,40.88,698.4-108.61,943.36-271.77,476.74-317.55,657.39-1582.14-537.63-1184.26-280.64,93.44-540.43,401.94-697,643.28-234.63,361.71,355.66,339.18,350.1-101.51-6.67-529.3,317.46-635.6-4.63-1322.38-154.21-328.81-267.76,247.84-897.95-480.22C1671-70.21,1880.42,1976.82,2241.23,2602.59c227.58,394.74,187.45,439,673.66,635.94,240.21,97.29-14,208.2-361.29-57.39-352.52-269.6-453.62-688.34-989.87-877" style="fill:none;stroke:#231815;stroke-linecap:round;stroke-linejoin:round;stroke-width:12px;fill-rule:evenodd"/></svg>