<svg width="694" height="448" viewBox="0 0 694 448" fill="none" xmlns="http://www.w3.org/2000/svg">
<path d="M372.5 331L372.995 331.068L373.072 330.509L372.508 330.5L372.5 331ZM375 346L374.945 346.497L375 346ZM385.5 313L386 312.985L385.999 312.954L385.994 312.924L385.5 313ZM384.5 306.5H384V306.538L384.006 306.576L384.5 306.5ZM382 302L382.257 301.571L382 302ZM371.5 328L371.015 328.121L372 328.019L371.5 328ZM372.5 302L372.008 301.91L372.002 301.945L372 301.981L372.5 302ZM320.5 269.5H320V269.804L320.271 269.944L320.5 269.5ZM320.5 258.5H321V258.432L320.982 258.366L320.5 258.5ZM326.5 249L326.529 249.499L326.5 249ZM342 239.5L341.538 239.309L341.531 239.325L341.526 239.342L342 239.5ZM342 227L341.6 227.3L341.611 227.315L341.624 227.329L342 227ZM441 253.5L440.867 253.982L440.879 253.985L441 253.5ZM443.5 242.5L443.188 242.89L443.5 242.5ZM350.5 218L350.621 217.514L350.609 217.512L350.598 217.509L350.5 218ZM342.5 217V216.5H342.11L342.015 216.878L342.5 217ZM343.5 222L343.974 222.158L344 222.081V222H343.5ZM342 217L341.51 217.098L341.532 217.209L341.6 217.3L342 217ZM346 215L345.945 215.497L345.972 215.5L346 215.5L346 215ZM381.5 215L381.5 215.5L381.837 215.5L381.964 215.187L381.5 215ZM395 185.5L395.224 185.947L395.233 185.942L395 185.5ZM453 202.5H453.5V202.425L453.478 202.354L453 202.5ZM450 223.5L450.447 223.724L450.453 223.713L450.458 223.701L450 223.5ZM442.5 235.5L442.355 235.979L442.426 236H442.5V235.5ZM403 225L402.919 225.493L402.94 225.497L402.962 225.499L403 225ZM398.5 227L398.364 227.481L398.377 227.485L398.5 227ZM442 236V235.5H441.979L441.958 235.502L442 236ZM443.5 236L443.658 235.526L443.581 235.5H443.5V236ZM448 237.5L447.842 237.974L447.856 237.979L447.869 237.983L448 237.5ZM448.5 241L448.277 240.552L448.242 240.57L448.209 240.593L448.5 241ZM445 243.5L444.709 243.093L445.108 243.988L445 243.5ZM455.308 205.182L454.811 205.123L455.308 205.182ZM2.49189 325.5L372.492 331.5L372.508 330.5L2.50811 324.5L2.49189 325.5ZM372.005 330.932C371.669 333.369 371.389 337.058 371.652 340.204C371.783 341.772 372.051 343.245 372.538 344.366C373.023 345.481 373.782 346.368 374.945 346.497L375.055 345.503C374.418 345.432 373.881 344.948 373.455 343.968C373.032 342.994 372.776 341.648 372.648 340.121C372.394 337.075 372.665 333.464 372.995 331.068L372.005 330.932ZM374.945 346.497C379.472 347 382.6 346.5 384.5 346.5V345.5C382.4 345.5 379.528 346 375.055 345.503L374.945 346.497ZM384.5 346.5C384.91 346.5 385.129 346.159 385.221 345.982C385.337 345.762 385.427 345.472 385.503 345.147C385.656 344.488 385.778 343.557 385.876 342.434C386.073 340.181 386.179 337.072 386.225 333.632C386.317 326.747 386.167 318.489 386 312.985L385 313.015C385.167 318.511 385.317 326.753 385.225 333.618C385.179 337.053 385.073 340.132 384.88 342.347C384.783 343.458 384.666 344.332 384.529 344.92C384.46 345.218 384.392 345.411 384.336 345.518C384.257 345.669 384.29 345.5 384.5 345.5V346.5ZM385.994 312.924L384.994 306.424L384.006 306.576L385.006 313.076L385.994 312.924ZM385 306.5C385 305.407 384.467 302.897 382.257 301.571L381.743 302.429C383.533 303.502 384 305.593 384 306.5H385ZM382.257 301.571C381.661 301.214 380.782 300.548 379.677 299.711C378.584 298.883 377.293 297.907 375.907 296.962C373.156 295.086 369.936 293.265 367.045 293.002L366.955 293.998C369.564 294.235 372.594 295.914 375.343 297.788C376.707 298.718 377.979 299.679 379.073 300.508C380.155 301.327 381.089 302.036 381.743 302.429L382.257 301.571ZM366.504 293.561C368.104 306.562 369.187 315.022 369.892 320.316C370.244 322.963 370.502 324.819 370.682 326.056C370.859 327.277 370.966 327.924 371.015 328.121L371.985 327.879C371.951 327.743 371.853 327.16 371.671 325.912C371.492 324.681 371.235 322.829 370.883 320.184C370.179 314.894 369.096 306.438 367.496 293.439L366.504 293.561ZM372 328.019L373 302.019L372 301.981L371 327.981L372 328.019ZM372.992 302.089C373.361 300.058 372.64 295.552 367.21 293.046L366.79 293.954C371.76 296.247 372.305 300.275 372.008 301.91L372.992 302.089ZM367.229 293.056L320.729 269.056L320.271 269.944L366.771 293.944L367.229 293.056ZM321 269.5V258.5H320V269.5H321ZM320.982 258.366C320.582 256.928 320.402 254.771 321.104 252.955C321.451 252.057 322.012 251.248 322.867 250.638C323.723 250.028 324.905 249.595 326.529 249.499L326.471 248.501C324.695 248.605 323.323 249.085 322.286 249.824C321.249 250.564 320.578 251.542 320.171 252.594C319.365 254.679 319.584 257.072 320.018 258.634L320.982 258.366ZM326.529 249.499C330.785 249.249 334.134 248.747 336.741 247.313C339.38 245.861 341.196 243.492 342.474 239.658L341.526 239.342C340.304 243.008 338.62 245.138 336.259 246.437C333.866 247.753 330.715 248.251 326.471 248.501L326.529 249.499ZM342.462 239.69C343.061 238.237 343.776 235.862 343.986 233.43C344.193 231.02 343.914 228.428 342.376 226.671L341.624 227.329C342.886 228.772 343.19 231.013 342.989 233.344C342.79 235.655 342.106 237.93 341.538 239.309L342.462 239.69ZM342.4 226.7C342.297 226.562 342.319 226.519 342.312 226.568C342.305 226.613 342.279 226.652 342.257 226.671C342.244 226.681 342.263 226.659 342.36 226.64C342.56 226.601 342.944 226.599 343.61 226.723C344.266 226.844 345.155 227.078 346.342 227.474L346.658 226.526C345.445 226.121 344.509 225.872 343.793 225.739C343.087 225.609 342.553 225.582 342.165 225.659C341.968 225.699 341.776 225.771 341.62 225.899C341.455 226.036 341.353 226.218 341.323 226.419C341.269 226.78 341.453 227.104 341.6 227.3L342.4 226.7ZM346.342 227.474C351.158 229.08 411.38 245.819 440.867 253.982L441.133 253.018C411.62 244.847 351.442 228.12 346.658 226.526L346.342 227.474ZM440.879 253.985C441.563 254.156 442.62 254.363 443.568 254.424C444.039 254.454 444.512 254.45 444.908 254.375C445.272 254.307 445.735 254.148 445.947 253.723L445.053 253.276C445.065 253.252 445.032 253.334 444.723 253.393C444.446 253.445 444.069 253.454 443.632 253.426C442.764 253.37 441.77 253.177 441.121 253.015L440.879 253.985ZM445.947 253.723C446.051 253.517 446.113 253.207 446.156 252.889C446.202 252.549 446.234 252.129 446.25 251.657C446.282 250.712 446.25 249.533 446.122 248.322C445.995 247.114 445.771 245.857 445.413 244.766C445.059 243.688 444.552 242.701 443.812 242.109L443.188 242.89C443.698 243.299 444.129 244.061 444.462 245.078C444.791 246.08 445.005 247.261 445.128 248.427C445.25 249.591 445.281 250.725 445.25 251.623C445.235 252.073 445.205 252.458 445.165 252.755C445.122 253.073 445.074 253.233 445.053 253.276L445.947 253.723ZM443.812 242.109C443.693 242.014 443.517 241.928 443.343 241.852C443.154 241.769 442.913 241.676 442.627 241.573C442.053 241.366 441.274 241.113 440.314 240.817C438.393 240.226 435.73 239.463 432.501 238.569C426.041 236.782 417.303 234.472 407.688 231.978C388.457 226.99 365.705 221.265 350.621 217.514L350.379 218.485C365.462 222.235 388.21 227.959 407.437 232.946C417.051 235.44 425.782 237.748 432.234 239.533C435.46 240.426 438.113 241.186 440.02 241.773C440.974 242.067 441.736 242.315 442.288 242.514C442.565 242.613 442.782 242.698 442.943 242.768C443.023 242.803 443.084 242.833 443.129 242.856C443.178 242.882 443.192 242.893 443.188 242.89L443.812 242.109ZM350.598 217.509C348.931 217.176 344.954 216.5 342.5 216.5V217.5C344.846 217.5 348.736 218.157 350.402 218.49L350.598 217.509ZM342.015 216.878C341.847 217.549 341.596 218.605 341.386 219.596C341.281 220.091 341.186 220.574 341.116 220.985C341.049 221.386 341 221.753 341 222H342C342 221.846 342.035 221.555 342.102 221.151C342.169 220.759 342.261 220.292 342.364 219.803C342.571 218.827 342.819 217.783 342.985 217.121L342.015 216.878ZM341 222C341 222.321 341.078 222.695 341.206 223.025C341.328 223.339 341.532 223.705 341.848 223.916C342.018 224.03 342.235 224.106 342.482 224.079C342.724 224.052 342.934 223.933 343.107 223.771C343.436 223.464 343.718 222.926 343.974 222.158L343.026 221.842C342.782 222.573 342.564 222.91 342.424 223.04C342.363 223.098 342.346 223.088 342.374 223.085C342.405 223.081 342.419 223.095 342.402 223.084C342.343 223.044 342.234 222.91 342.138 222.662C342.047 222.429 342 222.178 342 222H341ZM344 222C344 221.46 343.92 220.57 343.686 219.607C343.452 218.646 343.056 217.574 342.4 216.7L341.6 217.3C342.144 218.025 342.498 218.954 342.714 219.843C342.93 220.729 343 221.54 343 222H344ZM342.49 216.902C342.439 216.644 342.493 216.245 342.895 215.931C343.317 215.602 344.201 215.303 345.945 215.497L346.055 214.503C344.199 214.296 343 214.581 342.28 215.143C341.54 215.721 341.395 216.522 341.51 217.098L342.49 216.902ZM346 215.5L381.5 215.5L381.5 214.5L346 214.5L346 215.5ZM381.964 215.187C383.879 210.44 386.852 203.271 389.545 197.19C390.892 194.149 392.166 191.386 393.201 189.336C393.719 188.31 394.173 187.472 394.544 186.869C394.729 186.567 394.888 186.334 395.019 186.169C395.164 185.986 395.231 185.944 395.224 185.947L394.776 185.053C394.569 185.156 394.385 185.358 394.235 185.548C394.07 185.757 393.887 186.028 393.692 186.346C393.3 186.983 392.831 187.85 392.308 188.885C391.261 190.958 389.979 193.739 388.63 196.785C385.931 202.879 382.954 210.06 381.036 214.813L381.964 215.187ZM395.233 185.942C402.765 181.969 414.664 178.061 425.887 179.197C431.489 179.765 436.908 181.587 441.54 185.272C446.17 188.956 450.046 194.527 452.522 202.646L453.478 202.354C450.954 194.073 446.975 188.319 442.163 184.49C437.352 180.663 431.74 178.785 425.988 178.203C414.502 177.039 402.402 181.031 394.767 185.058L395.233 185.942ZM452.5 202.5V203.5H453.5V202.5H452.5ZM454.811 205.123C454.347 208.994 452.932 215.595 449.542 223.299L450.458 223.701C453.889 215.904 455.329 209.207 455.804 205.242L454.811 205.123ZM449.553 223.276C448.556 225.27 446.986 228.259 445.519 230.746C444.785 231.991 444.083 233.098 443.495 233.889C443.2 234.287 442.946 234.589 442.739 234.788C442.635 234.887 442.556 234.948 442.5 234.982C442.438 235.02 442.444 235 442.5 235V236C442.706 236 442.886 235.918 443.02 235.836C443.16 235.751 443.298 235.637 443.431 235.509C443.697 235.254 443.99 234.901 444.298 234.486C444.917 233.652 445.64 232.509 446.381 231.254C447.864 228.741 449.444 225.73 450.447 223.724L449.553 223.276ZM442.645 235.021C437.142 233.354 428.563 230.828 420.708 228.668C416.78 227.588 413.031 226.599 409.936 225.854C406.855 225.113 404.385 224.605 403.038 224.501L402.962 225.499C404.215 225.595 406.608 226.082 409.702 226.827C412.782 227.568 416.52 228.554 420.442 229.632C428.287 231.789 436.858 234.313 442.355 235.979L442.645 235.021ZM403.081 224.507C398.513 223.759 392.738 222.949 390.404 222.987C390.109 222.992 389.844 223.011 389.633 223.052C389.529 223.072 389.417 223.101 389.314 223.149C389.22 223.192 389.07 223.28 388.979 223.453C388.87 223.659 388.903 223.868 388.978 224.018C389.043 224.148 389.142 224.246 389.224 224.314C389.393 224.454 389.639 224.593 389.937 224.734C391.138 225.304 393.771 226.183 398.364 227.481L398.636 226.519C394.029 225.217 391.478 224.358 390.366 223.831C390.086 223.698 389.933 223.603 389.864 223.545C389.827 223.515 389.848 223.523 389.873 223.572C389.907 223.641 389.938 223.778 389.863 223.919C389.833 223.976 389.797 224.012 389.774 224.03C389.751 224.049 389.735 224.056 389.734 224.056C389.733 224.057 389.739 224.054 389.755 224.049C389.771 224.045 389.794 224.039 389.823 224.033C389.949 224.009 390.146 223.992 390.421 223.987C392.645 223.951 398.32 224.741 402.919 225.493L403.081 224.507ZM398.377 227.485C404.631 229.069 414.311 231.42 423.031 233.326C427.39 234.279 431.514 235.121 434.85 235.7C436.519 235.99 437.995 236.215 439.208 236.355C440.412 236.493 441.388 236.553 442.042 236.498L441.958 235.502C441.412 235.547 440.52 235.499 439.323 235.361C438.136 235.224 436.68 235.003 435.021 234.715C431.705 234.139 427.598 233.3 423.244 232.349C414.539 230.446 404.869 228.098 398.623 226.515L398.377 227.485ZM442 236.5H443.5V235.5H442V236.5ZM443.342 236.474L447.842 237.974L448.158 237.026L443.658 235.526L443.342 236.474ZM447.869 237.983C448.249 238.085 448.666 238.238 449.022 238.428C449.389 238.625 449.635 238.832 449.745 239.017C449.796 239.102 449.812 239.171 449.811 239.233C449.81 239.294 449.791 239.383 449.71 239.506C449.539 239.769 449.127 240.129 448.277 240.552L448.723 241.448C449.625 240.999 450.231 240.54 450.548 240.052C450.713 239.8 450.806 239.53 450.811 239.252C450.816 238.973 450.733 238.721 450.604 238.505C450.355 238.088 449.92 237.775 449.493 237.546C449.055 237.312 448.564 237.135 448.131 237.017L447.869 237.983ZM448.209 240.593L444.709 243.093L445.291 243.907L448.791 241.407L448.209 240.593ZM445.108 243.988C448.078 243.328 455.931 242.103 463.474 242.499L463.526 241.501C455.869 241.098 447.922 242.339 444.892 243.012L445.108 243.988ZM453.186 203.964C454.07 203.61 454.915 204.261 454.811 205.123L455.804 205.242C456.008 203.542 454.324 202.432 452.814 203.036L453.186 203.964Z" fill="#FF0000"/>
</svg>
