<?xml version="1.0" encoding="UTF-8" standalone="no"?>
<svg
   xmlns="http://www.w3.org/2000/svg"
   viewBox="0 0 3201.3333 2241.3333"
   height="2241.3333"
   width="3201.3333"
   xml:space="preserve"
   id="svg2"
   version="1.1"><metadata
     id="metadata8"><rdf:RDF><cc:Work
         rdf:about=""><dc:format>image/svg+xml</dc:format><dc:type
           rdf:resource="http://purl.org/dc/dcmitype/StillImage" /></cc:Work></rdf:RDF></metadata><defs
     id="defs6" /><g
     transform="matrix(1.3333333,0,0,-1.3333333,0,2241.3333)"
     id="g10"><g
       transform="scale(0.1)"
       id="g12"><g
         transform="scale(1.4729)"
         id="g14"><path
           id="path16"
           style="fill:#ffffff;fill-opacity:1;fill-rule:evenodd;stroke:none"
           d="M 5.57999,11411.2 H 16300 V 5.13444 H 5.57999 V 11411.2" /></g><g
         transform="scale(1.38524)"
         id="g18"><path
           id="path20"
           style="fill:none;stroke:#000000;stroke-width:20.1385994;stroke-linecap:butt;stroke-linejoin:miter;stroke-miterlimit:2.61313009;stroke-dasharray:none;stroke-opacity:1"
           d="m 16300,742.897 c 0,0 -4890.1,52.817 -5668.2,75.01 -152.4,4.348 -757.19,303.853 -885.65,379.753 -261.15,154.33 -281.16,-67.45 -404.36,-159.44 -60.71,-45.344 -240.3,-125.412 -269.99,-19.01 -41.52,148.91 -170.23,472.39 5.01,530.8 157.93,52.62 315.95,62.18 260.5,225.83 -126.05,371.81 -390.34,1168.98 -426.26,1630.3 -73.54,943.68 77.77,928.68 -356.53,1857.68 -90.36,193.29 -200.71,685.09 -176.14,1006.34 17.15,224.44 220.88,774.2 212.28,1056.11 -7.91,259.75 -196.72,137.17 -365.9,184.17 -207.5,57.63 -531.44,166.88 -739.07,166.88 -200.69,0 -243.91,-112.56 -297.04,105.35 -79.89,327.85 -258.02,869.22 -243.21,1219.31 3.29,77.5 -59.92,370.64 -75.42,541.34 -32.05,352.98 214.25,-118.71 36.57,-559.17 -112.83,-279.84 -226.26,-509.32 -316.7,-792.51 -116.93,-366.24 -103.72,-736.72 -191.94,-1089.61 -42.7,-170.85 -154.67,-48.9 -324.84,-56.63 -195.08,-8.84 -50.09,-474.85 -77.04,-724.48 -18.87,-174.89 -187.25,-347.05 -71.98,-551.04 67.77,-119.92 112.25,-118.84 101.34,28.31 -3,40.24 13.4,201.16 -22.37,143.05 -26.54,-43.12 4.36,-163.34 32.43,-228.59 24.07,-56.06 89.63,-88.01 143.41,-112.65 35.77,-16.38 149.01,-84.93 117.73,-31.29 -22.37,38.35 -61.48,50.04 -83.6,81.88 -18.74,26.94 -32.17,139.99 -29.34,202.51 3.87,85.75 165.25,146.39 99.52,165.64 -45.26,13.24 -24.26,-26.69 -13.39,-75.54 12.22,-54.85 -5.48,-126.71 -1.04,-186.26 5.23,-70.36 44.3,-102.77 99.36,-36.23 23.96,28.93 35.2,143.31 37.78,228.74 3.82,125.34 -35.42,234.88 -70.55,355.34 -19.01,65.13 -34.41,470.35 -40.35,605.41 -7.5,171.02 -203.31,-2.56 -297.87,136.78 -66.29,97.69 -28.3,625.31 -28.3,770.23 0,198.86 357.77,1664.26 549.45,2062.82 48.23,100.27 209.82,247.37 354.81,319.67 183.75,91.6 361.28,3.6 559.08,-22.2 351.4,-45.9 546.21,-100.8 490.1,275.5 -12.33,82.5 -25.03,176.2 -25.03,244.2 0,99.9 64.58,169.2 80.36,284.9 35.76,262.5 -59.65,664 -269.07,842.4 -37.39,31.8 -76.5,45.5 -104.67,59.7 -88.21,44 -28.05,201.5 130.33,125.9 169.06,-80.7 337.86,-370.2 426.8,-598.8 59.75,-153.5 135.39,-471.3 133.06,-704.4 -3.54,-357.1 -320.52,-328.6 -241.85,-374.5 85.65,-49.9 66.84,23.5 28.49,112.8 -59.53,138.7 -81.12,253.4 -73,391.3 18.52,315.9 52.86,567.3 -122.31,829.1 -85.58,128 -243.24,297.8 -411.33,258.2 -270.55,-63.6 -374.62,-129.2 -440.99,-362.2 -32.22,-113.2 -29.9,-297.8 -18.42,-455.2 10.39,-142.6 -44.43,-723.8 30.3,-741.2 119.3,-27.8 60.33,244.2 -39.76,358.8 -259.38,296.5 -156.74,1106.1 221.55,1286.3 44.9,21.3 121.22,45 184.41,45.1 118.75,0.2 160.41,-138.8 36.61,-175.6 -121.89,-36.2 -205.91,-56.1 -283.98,-143.2 -143.35,-160.1 -147.82,-511.3 -87.7,-745.1 33.78,-131.4 129.75,-324.9 268.47,-359.6 71.51,-17.9 454.49,41.7 387.43,95.4 -55.72,44.5 -289.39,-68.3 -373.68,-144.5 -64.89,-58.7 -35.95,-245.1 -10.78,-317.5 16.87,-48.5 95.67,-46.2 156.13,-45.5 200.31,2.3 211.21,-773.14 102.06,-375.73 -39.81,145.04 -57.5,373.23 109.09,388.93 322.56,30.3 776.07,-38.8 940.89,-334.81 67.36,-120.95 196.66,-357.26 296.76,-464.36 103.1,-110.26 212.16,-300.94 220.34,-48.49 2.2,67.84 -7.87,96.85 94.21,87.21 78.99,-7.45 196.69,-2.98 226.49,29.81 41.5,45.63 -73.33,431.43 -115.09,631.94 -34.77,167.1 14.93,363.3 36.17,533.3 5.68,45.5 11.37,157.3 0.19,241.9 -17.25,130.2 -134.19,182 -120.21,11.8 5.35,-64.7 7.21,-161.2 -24.5,-146.5 -41.72,19.4 -17.87,110.4 -17.87,131.2 0,16.5 -1.4,173.4 -18.21,247.7 -16.38,72.5 -83.24,58.8 -74.76,-37.9 5.02,-56.9 12.07,-163.2 13.26,-195.7 1.47,-40.2 -4.47,-105.8 -26.82,-68.5 -30.25,50.4 -3.77,278 -27.14,370 -15.95,62.6 -76.92,61.1 -70.18,-21.8 5.36,-65.4 26.55,-214.5 33.59,-300.8 9.77,-120.4 -39.01,-54.2 -39.01,-7.2 0,28.8 -14.32,166.6 -24.42,260.5 -2.96,27.4 -13.77,172.2 -60.49,58.4 -23.84,-58.2 -2.97,-242.2 -4.49,-251.2 -1.47,-8.8 -1.46,-258.5 -1.46,-288.3 0,-29.8 -35.77,-115.5 2.23,-99.1 37.99,16.4 -17.14,134.2 -21.62,155 -2.22,10.5 -4.29,34.5 -8.42,57.7 -22.54,126.5 -126.81,12 -114.81,-116.4 6.03,-64.6 22.25,-137.9 24.16,-148.4 2.97,-16.4 68.51,-214.6 122.18,-274.2 93.11,-103.5 209.03,-485.19 222.03,-602.03 8.92,-80.46 -10.44,-128.15 19.37,-140.08 29.81,-11.91 77.49,7.46 128.13,7.46 182.77,0 220.12,79.94 271.03,-113.97 46.39,-176.55 133.86,-555.07 114.91,-687.73 -89.63,-627.68 -871.51,-208.66 -947.66,86.44 -23.86,92.38 -104.33,563.26 -32.78,500.67 142.25,-124.49 -118.17,-998.39 -182.72,-1383.71 -8.29,-49.53 -9.38,-205.11 -13.38,-302.24 -5.28,-129.86 1.24,-63.4 -116.8,-63.4 -29.81,0 -376.97,64.06 -445.53,75.99 -68.55,11.9 -102.83,32.75 -153.48,38.73 -296.64,34.93 -526.12,181.41 -687.05,-148.97 -598.41,-1228.8 -351.61,-1582.06 456.17,-2645.02 130.05,-171.15 435.14,-505.82 351.2,-724.65 -250.12,-652.18 -745.89,-945.52 -1209.42,-1489.62 -34.79,-40.83 -291.46,-344.01 -400.14,-472.09 -66.9,-78.84 -54.68,-78.54 -160.16,-39.01 -216.21,81.08 -274.23,372.81 -479.73,144.92 -51.14,-56.68 -103.37,-123.77 -143.09,-158.32 -174.03,-151.3 65.08,-333.46 214.59,-357.65 137.16,-22.17 345.17,36.99 319.01,-161.62 -13.53,-102.59 -42.62,-298.27 1.39,-331.59 55.13,-41.71 123.68,-90.88 146.03,-113.24 309.53,-309.653 -119.96,-315.547 -371.37,-251.98 -175.01,44.227 -398.83,463.45 -561.41,625.99 -204.54,204.45 -57.4,497.7 71.56,497.7 53.62,0 56.6,-89.41 110.26,-143.05 53.64,-53.65 131.1,-98.35 166.88,-119.22 122.95,-71.71 307.27,-98.86 372.53,59.6 12.62,30.66 47.82,83.19 81.14,149.68 125.4,250.36 -453.66,194.25 -256.96,476.17 44.86,57.82 236,360.92 380.44,591.02 182.35,290.48 330.41,482.77 610.5,706.87 394.5,315.58 364.62,790.37 363.25,1272.11 -0.82,283.53 100.35,188.13 235.13,3.06 83.37,-114.5 163.35,-232.8 244.36,-349.07 819.58,-1133.63 309.6,-1043.69 669.06,-1925.17 125.18,-306.96 467.9,-1138.43 497.72,-1192.07 29.81,-53.64 83.43,-40.24 140.08,-14.9 56.62,25.33 74.5,37.26 122.18,50.66 80.94,22.77 198.24,135.29 259.28,4.48 20.86,-44.71 153.49,-229.5 166.92,-268.24 13.41,-38.73 34.26,-43.2 -58.13,-98.34 -121.06,-72.24 -182.58,-198.12 -281.61,-222.02 -151.75,-36.618 -306.75,-350.502 -13.15,-439.413 178.09,-53.933 494.46,-118.379 658.42,-107.45 223.52,14.895 479.82,104.314 566.22,137.093 86.4,32.784 241.4,150.504 149,154.97 -238.3,11.522 206.3,-682.0492 -216.1,-680.1881 L 1037.34,124.335" /></g></g></g></svg>